<?xml version="1.0"?>
<svg version="1.1" xmlns="http://www.w3.org/2000/svg" width="400" height="200" style="border: dashed 2px #aaa"><path fill="#591ddb" d="M18.18,112.24q0-1.44,1.02-2.61q1.02-1.23,2.46-1.23l0.39,0l5.61,0l0-1.86l-5.61,0l-0.39,0q-1.53-0.3-2.505-1.32t-0.975-2.43q0-1.77,1.035-2.805t2.835-1.035l10.2,0l0-1.89l-10.2,0q-2.31,0-4.02,1.71q-1.71,1.65-1.71,4.02q0,1.5,0.57,2.73t1.68,1.77q-1.11,0.81-1.68,2.13t-0.57,2.82q0,2.34,1.71,3.99q1.74,1.74,4.02,1.74l10.2,0l0-1.98l-10.2,0q-1.8,0-2.835-1.02t-1.035-2.73z M45.3852,107.47l2.25,0q2.28,0,3.78-1.5t1.5-3.78q0-2.01-1.5-3.6q-1.59-1.65-3.78-1.65l-9.39,0l-1.86,0l0,21.06l1.86,0l0-10.53l4.89,0l6.39,10.53l2.25,0z M38.2452,105.61l0-6.78l9.39,0q1.38,0,2.43,0.99q0.99,0.99,0.99,2.37q0,1.44-0.99,2.43q-1.05,0.99-2.43,0.99l-9.39,0z"/><path fill="#" d=""/></svg>
